# xmcd
#
# Track frame offsets: 
#        150
#        10832
#        29092
#        37081
#        53837
#        67750
#        81974
#        94767
#        104309
#        120683
#        154605
#        167196
#        192333
#        217056
#        237972
#        252153
#        270211
#        286119
#        308108
#        321684
#
# Disc length: 4531 seconds
#
# Revision: 0
# Processed by: cddbd v1.5.2PL0 Copyright (c) Steve Scherf et al.
# Submitted via: ExactAudioCopy v0.99pb4
#
DISCID=1911b114
DTITLE=Sean Costello - Sean's Blues
DYEAR=2009
DGENRE=Blues
TTITLE0=Take Me Back
TTITLE1=Sail On
TTITLE2=Call The Cops
TTITLE3=Lovin' Machine
TTITLE4=The Plumber
TTITLE5=Tell Me Baby
TTITLE6=Big Beaver
TTITLE7=Mellow Chick Swing
TTITLE8=Walking Blues
TTITLE9=Double Trouble
TTITLE10=Who's Been Cheatin' Who
TTITLE11=All Your Love (I Miss Loving)
TTITLE12=Mojo Boogie
TTITLE13=Motor Head Baby
TTITLE14=Don't Be Reckless With My Heart
TTITLE15=Your Love Is Amazing
TTITLE16=It Takes Time
TTITLE17=You Don't Know What Love Is
TTITLE18=Feel Like I Ain't Got A Home
TTITLE19=She Changed My Mind
EXTD=
EXTT0=
EXTT1=
EXTT2=
EXTT3=
EXTT4=
EXTT5=
EXTT6=
EXTT7=
EXTT8=
EXTT9=
EXTT10=
EXTT11=
EXTT12=
EXTT13=
EXTT14=
EXTT15=
EXTT16=
EXTT17=
EXTT18=
EXTT19=
PLAYORDER=
